<?xml version="1.0" encoding="utf-8"?>
<!-- Generator: Adobe Illustrator 25.2.1, SVG Export Plug-In . SVG Version: 6.00 Build 0)  -->
<svg version="1.1" xmlns="http://www.w3.org/2000/svg" xmlns:xlink="http://www.w3.org/1999/xlink" x="0px" y="0px"
	 viewBox="0 0 1280 1024" style="enable-background:new 0 0 1280 1024;" xml:space="preserve">
<style type="text/css">
	.st0{opacity:0.0784;fill:#006297;}
	.st1{opacity:0.2;fill:#DEDDD9;}
	.st2{opacity:0.8;fill:#DEDDD9;}
	.st3{fill:#006297;}
	.st4{opacity:0.5;fill:#DEDDD9;}
	.st5{fill:none;}
	.st6{font-family:'Roboto-Regular';}
	.st7{font-size:16px;}
	.st8{fill:none;stroke:#000000;stroke-miterlimit:10;}
	.st9{fill:none;stroke:#FFFFFF;stroke-width:0.4;stroke-miterlimit:10;}
	.st10{fill:#B7AF49;stroke:#B7AF49;stroke-width:2;stroke-miterlimit:10;}
	.st11{fill:none;stroke:#B3B3B3;stroke-width:0.7;stroke-miterlimit:10;}
	.st12{font-family:'Roboto-Light';}
	.st13{font-size:12px;}
	.st14{display:none;}
	.st15{display:inline;fill:none;stroke:#FFFFFF;stroke-width:0.5;stroke-miterlimit:10;}
	.st16{display:inline;}
	.st17{fill:none;stroke:#FFFFFF;stroke-width:0.5;stroke-miterlimit:10;}
	.st18{fill:#007FBE;}
	.st19{opacity:0.5;}
	.st20{fill:#007FBE;stroke:#231F20;stroke-miterlimit:10;}
</style>
<g id="Layer_3">
	<rect x="201" y="400" class="st0" width="573" height="308"/>
	<rect x="201" y="518" class="st1" width="352" height="190"/>
	<polyline class="st2" points="201,281 201,400 774,400 774,708 993.25,707.49 993.25,281.33 	"/>
	<path class="st3" d="M201,400"/>
	<polygon class="st4" points="201.5,400 201.5,518 553,518 553,708 774,708 774,400 	"/>
	<rect x="515.89" y="747.83" class="st5" width="243.11" height="18.89"/>
	<text transform="matrix(1 0 0 1 515.8936 759.8301)" class="st6 st7">Significance of ESG impact</text>
	<path class="st8" d="M993.25,707.49"/>
	<path class="st8" d="M201.75,707.49"/>
	<path class="st8" d="M197.5,281.33"/>
	<path class="st8" d="M197.5,707.49"/>
	<path class="st9" d="M993.25,281.33"/>
	<path class="st9" d="M201.75,281.33"/>
	<path class="st10" d="M404.02,605.05L404.02,605.05c1.66,0,3,1.34,3,3l0,0c0,1.66-1.34,3-3,3l0,0c-1.66,0-3-1.34-3-3l0,0
		C401.02,606.39,402.37,605.05,404.02,605.05z"/>
	<path class="st10" d="M641.47,463L641.47,463c1.66,0,3,1.34,3,3l0,0c0,1.66-1.34,3-3,3l0,0c-1.66,0-3-1.34-3-3l0,0
		C638.47,464.34,639.82,463,641.47,463z"/>
	<path class="st10" d="M421.61,510.35L421.61,510.35c1.66,0,3,1.34,3,3l0,0c0,1.66-1.34,3-3,3l0,0c-1.66,0-3-1.34-3-3l0,0
		C418.61,511.69,419.95,510.35,421.61,510.35z"/>
	<path class="st10" d="M729.42,439.32L729.42,439.32c1.66,0,3,1.34,3,3l0,0c0,1.66-1.34,3-3,3l0,0c-1.66,0-3-1.34-3-3l0,0
		C726.42,440.67,727.76,439.32,729.42,439.32z"/>
	<path class="st10" d="M817.36,377.77L817.36,377.77c1.66,0,3,1.34,3,3v0c0,1.66-1.34,3-3,3l0,0c-1.66,0-3-1.34-3-3v0
		C814.36,379.11,815.7,377.77,817.36,377.77z"/>
	<path class="st10" d="M817.36,481.94L817.36,481.94c1.66,0,3,1.34,3,3l0,0c0,1.66-1.34,3-3,3l0,0c-1.66,0-3-1.34-3-3l0,0
		C814.36,483.28,815.7,481.94,817.36,481.94z"/>
	<path class="st10" d="M773.39,510.35L773.39,510.35c1.66,0,3,1.34,3,3l0,0c0,1.66-1.34,3-3,3l0,0c-1.66,0-3-1.34-3-3l0,0
		C770.39,511.69,771.73,510.35,773.39,510.35z"/>
	<path class="st10" d="M773.39,505.62L773.39,505.62c1.66,0,3,1.34,3,3v0c0,1.66-1.34,3-3,3l0,0c-1.66,0-3-1.34-3-3v0
		C770.39,506.96,771.73,505.62,773.39,505.62z"/>
	<path class="st10" d="M729.42,481.94L729.42,481.94c1.66,0,3,1.34,3,3l0,0c0,1.66-1.34,3-3,3l0,0c-1.66,0-3-1.34-3-3l0,0
		C726.42,483.28,727.76,481.94,729.42,481.94z"/>
	<path class="st10" d="M796.77,410.91"/>
	<path class="st10" d="M802.77,416.91"/>
	<path class="st10" d="M843.74,410.91L843.74,410.91c1.66,0,3,1.34,3,3l0,0c0,1.66-1.34,3-3,3l0,0c-1.66,0-3-1.34-3-3l0,0
		C840.74,412.26,842.09,410.91,843.74,410.91z"/>
	<path class="st10" d="M491.97,567.17L491.97,567.17c1.66,0,3,1.34,3,3l0,0c0,1.66-1.34,3-3,3l0,0c-1.66,0-3-1.34-3-3l0,0
		C488.97,568.51,490.31,567.17,491.97,567.17z"/>
	<path class="st10" d="M755.8,444.06L755.8,444.06c1.66,0,3,1.34,3,3l0,0c0,1.66-1.34,3-3,3l0,0c-1.66,0-3-1.34-3-3l0,0
		C752.8,445.4,754.14,444.06,755.8,444.06z"/>
	<path class="st10" d="M799.77,415.65L799.77,415.65c1.66,0,3,1.34,3,3l0,0c0,1.66-1.34,3-3,3l0,0c-1.66,0-3-1.34-3-3l0,0
		C796.77,416.99,798.12,415.65,799.77,415.65z"/>
	<path class="st10" d="M685.44,543.5L685.44,543.5c1.66,0,3,1.34,3,3l0,0c0,1.66-1.34,3-3,3l0,0c-1.66,0-3-1.34-3-3l0,0
		C682.44,544.84,683.79,543.5,685.44,543.5z"/>
	<path class="st10" d="M509.56,519.82L509.56,519.82c1.66,0,3,1.34,3,3l0,0c0,1.66-1.34,3-3,3h0c-1.66,0-3-1.34-3-3l0,0
		C506.56,521.16,507.9,519.82,509.56,519.82z"/>
	<path class="st10" d="M975.66,349.36L975.66,349.36c1.66,0,3,1.34,3,3l0,0c0,1.66-1.34,3-3,3l0,0c-1.66,0-3-1.34-3-3l0,0
		C972.66,350.7,974,349.36,975.66,349.36z"/>
	<path class="st10" d="M755.8,401.44L755.8,401.44c1.66,0,3,1.34,3,3l0,0c0,1.66-1.34,3-3,3l0,0c-1.66,0-3-1.34-3-3l0,0
		C752.8,402.79,754.14,401.44,755.8,401.44z"/>
	<path class="st10" d="M667.86,453.53L667.86,453.53c1.66,0,3,1.34,3,3l0,0c0,1.66-1.34,3-3,3l0,0c-1.66,0-3-1.34-3-3l0,0
		C664.86,454.87,666.2,453.53,667.86,453.53z"/>
	<path class="st10" d="M861.33,439.32L861.33,439.32c1.66,0,3,1.34,3,3l0,0c0,1.66-1.34,3-3,3l0,0c-1.66,0-3-1.34-3-3l0,0
		C858.33,440.67,859.68,439.32,861.33,439.32z"/>
	<path class="st10" d="M799.77,410.91L799.77,410.91c1.66,0,3,1.34,3,3l0,0c0,1.66-1.34,3-3,3l0,0c-1.66,0-3-1.34-3-3l0,0
		C796.77,412.26,798.12,410.91,799.77,410.91z"/>
	<path class="st11" d="M196.5,282.33"/>
	<path class="st11" d="M196.5,708.49"/>
	<text transform="matrix(1 0 0 1 202.1333 732.1274)" class="st12 st13">low</text>
	<text transform="matrix(1 0 0 1 575.6528 732.1274)" class="st12 st13">medium</text>
	<text transform="matrix(1 0 0 1 969.103 732.1274)" class="st12 st13">high</text>
	<g class="st14">
		<line class="st15" x1="2408.75" y1="600.09" x2="3200.25" y2="600.09"/>
		<g class="st16">
			<line class="st17" x1="2499.69" y1="791.49" x2="2499.69" y2="365.33"/>
			<line class="st17" x1="2587.64" y1="791.49" x2="2587.64" y2="365.33"/>
			<line class="st17" x1="2675.58" y1="791.49" x2="2675.58" y2="365.33"/>
			<line class="st17" x1="2851.47" y1="791.49" x2="2851.47" y2="365.33"/>
			<line class="st17" x1="2939.42" y1="791.49" x2="2939.42" y2="365.33"/>
			<line class="st17" x1="3027.36" y1="791.49" x2="3027.36" y2="365.33"/>
			<line class="st17" x1="3115.31" y1="791.49" x2="3115.31" y2="365.33"/>
			<line class="st17" x1="2411.75" y1="744.14" x2="3203.25" y2="744.14"/>
			<line class="st17" x1="2411.75" y1="696.79" x2="3203.25" y2="696.79"/>
			<line class="st17" x1="2411.75" y1="649.44" x2="3203.25" y2="649.44"/>
			<line class="st17" x1="2411.75" y1="554.74" x2="3203.25" y2="554.74"/>
			<line class="st17" x1="2411.75" y1="507.38" x2="3203.25" y2="507.38"/>
			<line class="st17" x1="2411.75" y1="460.03" x2="3203.25" y2="460.03"/>
			<line class="st17" x1="2411.75" y1="412.68" x2="3203.25" y2="412.68"/>
			<line class="st17" x1="2762.7" y1="787.78" x2="2762.7" y2="361.62"/>
		</g>
	</g>
	<text transform="matrix(1 0 0 1 759 265.8511)" class="st6 st7">Bubble size = strategic revelance</text>
	<rect x="143.38" y="412.03" class="st5" width="18.89" height="162.35"/>
	<text transform="matrix(0 -1 1 0 155.378 574.3838)" class="st6 st7">Stakeholder revelance</text>
	<text transform="matrix(0 -1 1 0 189.0425 702.6538)" class="st12 st13">low</text>
	<text transform="matrix(0 -1 1 0 189.4683 518.0698)" class="st12 st13">medium</text>
	<text transform="matrix(0 -1 1 0 189.0215 306.6631)" class="st12 st13">high</text>
</g>
<g id="Layer_6">
	<path class="st18" d="M404,608.21V604c2.32,0,4.21,1.88,4.21,4.21c0,2.32-1.88,4.21-4.21,4.21s-4.21-1.88-4.21-4.21
		c0-2.32,1.88-4.21,4.21-4.21l0,0V608.21z"/>
	<path class="st18" d="M289.5,603.39v-3.08c1.7,0,3.08,1.38,3.08,3.08s-1.38,3.08-3.08,3.08s-3.08-1.38-3.08-3.08
		s1.38-3.08,3.08-3.08l0,0V603.39z"/>
	<path class="st18" d="M641.5,466.39v-7.56c4.17,0,7.56,3.38,7.56,7.56c0,4.17-3.38,7.56-7.56,7.56s-7.56-3.38-7.56-7.56
		c0-4.17,3.38-7.56,7.56-7.56l0,0V466.39z"/>
	<path class="st18" d="M421.5,513.39v-7.36c4.07,0,7.36,3.3,7.36,7.36c0,4.07-3.3,7.36-7.36,7.36s-7.36-3.3-7.36-7.36
		c0-4.07,3.3-7.36,7.36-7.36l0,0V513.39z"/>
	<path class="st18" d="M729.5,442.39v-5.93c3.28,0,5.93,2.66,5.93,5.93s-2.66,5.93-5.93,5.93s-5.93-2.66-5.93-5.93
		s2.66-5.93,5.93-5.93l0,0V442.39z"/>
	<path class="st18" d="M773.5,520.39v-7.98c4.41,0,7.98,3.57,7.98,7.98c0,4.41-3.57,7.98-7.98,7.98s-7.98-3.57-7.98-7.98
		c0-4.41,3.57-7.98,7.98-7.98l0,0V520.39z"/>
	<path class="st18" d="M773.5,510.39v-7.74c4.28,0,7.74,3.47,7.74,7.74s-3.47,7.74-7.74,7.74s-7.74-3.47-7.74-7.74
		s3.47-7.74,7.74-7.74l0,0V510.39z"/>
	<path class="st18" d="M730.5,485.39v-7.98c4.41,0,7.98,3.57,7.98,7.98c0,4.41-3.57,7.98-7.98,7.98s-7.98-3.57-7.98-7.98
		c0-4.41,3.57-7.98,7.98-7.98l0,0V485.39z"/>
	<path class="st18" d="M492,570.39v-4.36c2.41,0,4.36,1.95,4.36,4.36s-1.95,4.36-4.36,4.36s-4.36-1.95-4.36-4.36
		s1.95-4.36,4.36-4.36l0,0V570.39z"/>
	<path class="st18" d="M755.5,447.39v-8.89c4.91,0,8.89,3.98,8.89,8.89c0,4.91-3.98,8.89-8.89,8.89s-8.89-3.98-8.89-8.89
		c0-4.9,3.98-8.89,8.89-8.89V447.39z"/>
	<path class="st18" d="M685.5,546.39v-7.74c4.28,0,7.74,3.47,7.74,7.74s-3.47,7.74-7.74,7.74s-7.74-3.47-7.74-7.74
		s3.47-7.74,7.74-7.74l0,0V546.39z"/>
	<path class="st18" d="M509.5,522.39v-9.61c5.31,0,9.61,4.3,9.61,9.61s-4.3,9.61-9.61,9.61s-9.61-4.3-9.61-9.61s4.3-9.61,9.61-9.61
		l0,0V522.39z"/>
	<path class="st18" d="M669.5,455.39v-8.33c4.6,0,8.33,3.73,8.33,8.33c0,4.6-3.73,8.33-8.33,8.33s-8.33-3.73-8.33-8.33
		c0-4.6,3.73-8.33,8.33-8.33l0,0V455.39z"/>
	<text transform="matrix(1 0 0 1 871.5479 430.2021)" class="st12 st13">Access to hearing care</text>
	<text transform="matrix(1 0 0 1 484.6797 433.2021)"><tspan x="0" y="0" class="st12 st13">Ethical marketing and  </tspan><tspan x="18.99" y="14.4" class="st12 st13">sales practices</tspan></text>
	<text transform="matrix(1 0 0 1 510.1689 366.2021)" class="st12 st13">Data privacy &amp; digital ethics</text>
	<text transform="matrix(1 0 0 1 764.4822 310.2021)" class="st12 st13">Product quality, safety and reliability</text>
	<text transform="matrix(1 0 0 1 489.1688 547.2021)" class="st12 st13">Public policy</text>
	<text transform="matrix(1 0 0 1 601.4772 576.2021)" class="st12 st13">Taxes</text>
	<text transform="matrix(1 0 0 1 857.9702 482.2021)"><tspan x="0" y="0" class="st12 st13">Business ethics &amp;  </tspan><tspan x="3.42" y="14.4" class="st12 st13">legal compliance</tspan></text>
	<text transform="matrix(1 0 0 1 699.6205 467.2021)" class="st12 st13">Corporate governance</text>
	<text transform="matrix(1 0 0 1 457.3099 589.2021)" class="st12 st13">Animal welfare</text>
	<text transform="matrix(1 0 0 1 878.4699 381.2021)"><tspan x="0" y="0" class="st12 st13">Responsible supply </tspan><tspan x="1.37" y="14.4" class="st12 st13">chain management</tspan></text>
	<text transform="matrix(1 0 0 1 663.5905 333.2021)"><tspan x="0" y="0" class="st12 st13">Human rights &amp; </tspan><tspan x="3.52" y="14.4" class="st12 st13">labor practices</tspan></text>
	<text transform="matrix(1 0 0 1 631.7671 504.2021)"><tspan x="0" y="0" class="st12 st13">Responsible </tspan><tspan x="-7.24" y="14.4" class="st12 st13">reorganizations</tspan></text>
	<text transform="matrix(1 0 0 1 846.6605 589.2021)" class="st12 st13">Employee wellbeing</text>
	<text transform="matrix(1 0 0 1 709.9417 584.2021)"><tspan x="0" y="0" class="st12 st13">Occupational </tspan><tspan x="-9.03" y="14.4" class="st12 st13">health and safety</tspan></text>
	<text transform="matrix(1 0 0 1 858.8356 540.2021)" class="st12 st13">Diversity &amp; inclusion</text>
	<text transform="matrix(1 0 0 1 779.6104 349.2021)" class="st12 st13">Talent development</text>
	<text transform="matrix(1 0 0 1 637.639 407.2021)"><tspan x="0" y="0" class="st12 st13">Eco-friendly </tspan><tspan x="8.92" y="14.4" class="st12 st13">products</tspan></text>
	<text transform="matrix(1 0 0 1 395.9585 534.2021)" class="st12 st13">Waste</text>
	<text transform="matrix(1 0 0 1 502.6579 485.2021)" class="st12 st13">Energy &amp; climate</text>
	<text transform="matrix(1 0 0 1 274.7159 622.2021)" class="st12 st13">Biodiversity</text>
	<text transform="matrix(1 0 0 1 384.6323 627.2021)" class="st12 st13">Water</text>
	<line class="st19" x1="723.5" y1="436.5" x2="696.5" y2="418.5"/>
	<line class="st19" x1="824" y1="367" x2="830.5" y2="353.5"/>
	<line class="st19" x1="827" y1="495" x2="864.5" y2="527.5"/>
	<line class="st19" x1="784" y1="514" x2="846.5" y2="580.5"/>
	<line class="st19" x1="765.5" y1="530.5" x2="749.5" y2="573.5"/>
	<line class="st19" x1="723" y1="494" x2="699.5" y2="503.5"/>
	<line class="st19" x1="746.5" y1="349.5" x2="794.5" y2="399.5"/>
	<line class="st19" x1="850.5" y1="406.5" x2="879.5" y2="387.5"/>
	<line class="st19" x1="807" y1="434" x2="858.5" y2="481.5"/>
	<line class="st19" x1="925.5" y1="313.5" x2="969" y2="345"/>
	<line class="st19" x1="654.5" y1="368.5" x2="743.5" y2="398.5"/>
	<line class="st19" x1="592.5" y1="439.5" x2="657.5" y2="452.5"/>
	<line class="st19" x1="871" y1="441" x2="887.5" y2="433.5"/>
	<line class="st19" x1="592" y1="482" x2="630" y2="472"/>
	<line class="st19" x1="633.5" y1="570.5" x2="675" y2="552"/>
	<circle class="st18" cx="818" cy="485" r="9.5"/>
	<g>
		<circle class="st20" cx="755.5" cy="404.5" r="9.5"/>
		<circle class="st20" cx="818" cy="379" r="9.5"/>
		<circle class="st20" cx="977" cy="352" r="7.5"/>
		<circle class="st20" cx="803" cy="420" r="9.5"/>
		<circle class="st20" cx="800" cy="409" r="8.5"/>
		<circle class="st20" cx="843.5" cy="413.5" r="6"/>
		<circle class="st20" cx="860" cy="443" r="7.5"/>
	</g>
</g>
</svg>
